<svg width="32" height="32" viewBox="0 0 32 32" fill="none" xmlns="http://www.w3.org/2000/svg">
<g id="icon cool-icon-10">
<path id="coolicon" d="M16.0003 29.3332C8.63653 29.3332 2.66699 23.3636 2.66699 15.9998C2.66699 8.63604 8.63653 2.6665 16.0003 2.6665C23.3641 2.6665 29.3337 8.63604 29.3337 15.9998C29.3256 23.3603 23.3608 29.3251 16.0003 29.3332ZM16.0003 5.33317C10.1093 5.33317 5.33366 10.1088 5.33366 15.9998C5.33366 21.8909 10.1093 26.6665 16.0003 26.6665C21.8914 26.6665 26.667 21.8909 26.667 15.9998C26.6604 10.1115 21.8886 5.33978 16.0003 5.33317ZM22.667 17.3332H14.667V9.33317H17.3337V14.6665H22.667V17.3332Z" fill="white"/>
</g>
</svg>
